<?xml version="1.0" standalone="no"?>
<!DOCTYPE svg PUBLIC "-//W3C//DTD SVG 20010904//EN"
 "http://www.w3.org/TR/2001/REC-SVG-20010904/DTD/svg10.dtd">
<svg version="1.0" xmlns="http://www.w3.org/2000/svg"
 width="96.000000pt" height="96.000000pt" viewBox="0 0 96.000000 96.000000"
 preserveAspectRatio="xMidYMid meet">

<g transform="translate(0.000000,96.000000) scale(0.100000,-0.100000)"
fill="#000000" stroke="none">
<path d="M105 815 l-25 -24 0 -255 0 -255 57 60 56 59 64 0 63 0 0 -75 c0 -67
3 -79 25 -100 24 -25 25 -25 223 -25 l199 0 56 -59 57 -60 0 255 0 255 -25 24
c-22 23 -32 25 -120 25 l-95 0 0 75 c0 67 -3 79 -25 100 l-24 25 -231 0 -231
0 -24 -25z m455 -195 l0 -140 -200 0 -200 0 0 140 0 140 200 0 200 0 0 -140z
m240 -200 l0 -140 -200 0 -200 0 0 60 0 60 95 0 c88 0 98 2 120 25 21 20 25
34 25 80 l0 55 80 0 80 0 0 -140z"/>
</g>
</svg>
