<?xml version="1.0" standalone="no"?>
<!DOCTYPE svg PUBLIC "-//W3C//DTD SVG 20010904//EN"
 "http://www.w3.org/TR/2001/REC-SVG-20010904/DTD/svg10.dtd">
<svg version="1.0" xmlns="http://www.w3.org/2000/svg"
 width="96.000000pt" height="96.000000pt" viewBox="0 0 96.000000 96.000000"
 preserveAspectRatio="xMidYMid meet">

<g transform="translate(0.000000,96.000000) scale(0.100000,-0.100000)"
fill="#000000" stroke="none">
<path d="M275 751 c-45 -20 -70 -60 -70 -112 0 -42 5 -53 33 -81 28 -28 39
-33 82 -33 43 0 54 5 82 33 28 28 33 39 33 82 0 42 -5 54 -31 81 -33 33 -92
46 -129 30z m75 -86 c26 -32 -13 -81 -47 -59 -35 22 -23 74 17 74 10 0 23 -7
30 -15z"/>
<path d="M595 751 c-45 -20 -70 -60 -70 -112 0 -42 5 -53 33 -81 28 -28 39
-33 82 -33 43 0 54 5 82 33 28 28 33 39 33 82 0 42 -5 54 -31 81 -33 33 -92
46 -129 30z m75 -86 c26 -32 -13 -81 -47 -59 -35 22 -23 74 17 74 10 0 23 -7
30 -15z"/>
<path d="M215 426 c-71 -17 -121 -44 -150 -78 -20 -24 -25 -40 -25 -89 l0 -59
440 0 440 0 0 60 c0 54 -3 64 -32 95 -64 68 -227 102 -346 71 -56 -14 -68 -14
-119 -1 -68 18 -139 18 -208 1z m206 -82 c59 -17 99 -39 99 -54 0 -6 -76 -10
-200 -10 -110 0 -200 4 -200 9 0 16 29 33 87 51 72 23 143 25 214 4z m320 0
c59 -17 99 -39 99 -54 0 -6 -48 -10 -118 -10 l-117 0 -11 35 c-6 19 -9 37 -6
40 11 11 101 4 153 -11z"/>
</g>
</svg>
