<?xml version="1.0" standalone="no"?>
<!DOCTYPE svg PUBLIC "-//W3C//DTD SVG 20010904//EN"
 "http://www.w3.org/TR/2001/REC-SVG-20010904/DTD/svg10.dtd">
<svg version="1.0" xmlns="http://www.w3.org/2000/svg"
 width="96.000000pt" height="96.000000pt" viewBox="0 0 96.000000 96.000000"
 preserveAspectRatio="xMidYMid meet">

<g transform="translate(0.000000,96.000000) scale(0.100000,-0.100000)"
fill="#316ff6" stroke="none">
<path d="M275 751 c-45 -20 -70 -60 -70 -112 0 -42 5 -53 33 -81 28 -28 39
-33 82 -33 43 0 54 5 82 33 28 28 33 39 33 82 0 42 -5 54 -31 81 -33 33 -92
46 -129 30z"/>
<path d="M595 751 c-45 -20 -70 -60 -70 -112 0 -42 5 -53 33 -81 28 -28 39
-33 82 -33 43 0 54 5 82 33 28 28 33 39 33 82 0 42 -5 54 -31 81 -33 33 -92
46 -129 30z"/>
<path d="M215 427 c-122 -32 -175 -79 -175 -156 0 -26 5 -52 12 -59 17 -17
519 -17 536 0 7 7 12 34 12 60 0 41 -5 54 -32 83 -62 66 -237 102 -353 72z"/>
<path d="M626 419 c40 -44 54 -85 54 -154 l0 -65 108 0 c71 0 112 4 120 12 7
7 12 34 12 60 0 41 -5 54 -32 83 -40 42 -122 73 -217 82 l-66 6 21 -24z"/>
</g>
</svg>
