<?xml version="1.0" standalone="no"?>
<!DOCTYPE svg PUBLIC "-//W3C//DTD SVG 20010904//EN"
 "http://www.w3.org/TR/2001/REC-SVG-20010904/DTD/svg10.dtd">
<svg version="1.0" xmlns="http://www.w3.org/2000/svg"
 width="96.000000pt" height="96.000000pt" viewBox="0 0 96.000000 96.000000"
 preserveAspectRatio="xMidYMid meet">

<g transform="translate(0.000000,96.000000) scale(0.100000,-0.100000)"
fill="#45BD62" stroke="none">
<path d="M105 775 l-25 -24 0 -271 0 -271 25 -24 24 -25 351 0 351 0 24 25 25
24 0 271 0 271 -25 24 -24 25 -351 0 -351 0 -24 -25z m325 -150 c26 -32 -13
-81 -47 -59 -23 14 -28 41 -13 59 16 19 44 19 60 0z m230 -212 c40 -53 73
-103 74 -112 1 -14 -27 -16 -254 -16 -227 0 -255 2 -254 16 1 18 101 149 114
149 4 0 27 -22 50 -50 23 -27 46 -50 50 -50 5 0 37 36 71 80 34 44 65 80 69
80 4 0 40 -43 80 -97z"/>
</g>
</svg>
