<?xml version="1.0" standalone="no"?>
<!DOCTYPE svg PUBLIC "-//W3C//DTD SVG 20010904//EN"
 "http://www.w3.org/TR/2001/REC-SVG-20010904/DTD/svg10.dtd">
<svg version="1.0" xmlns="http://www.w3.org/2000/svg"
 width="100.000000pt" height="100.000000pt" viewBox="0 0 100.000000 100.000000"
 preserveAspectRatio="xMidYMid meet">

<g transform="translate(0.000000,100.000000) scale(0.100000,-0.100000)"
fill="#888" stroke="none">
<path d="M405 910 c-154 -32 -274 -122 -333 -248 -22 -47 -27 -71 -27 -142 0
-74 4 -93 29 -145 17 -35 54 -84 88 -118 l59 -58 -11 -37 c-7 -20 -23 -54 -36
-74 -30 -47 -30 -48 4 -48 45 0 120 26 165 57 38 26 47 28 151 29 161 1 265
43 358 142 112 119 136 268 68 408 -84 172 -311 275 -515 234z m265 -59 c163
-65 260 -204 247 -357 -6 -81 -38 -146 -102 -210 -91 -92 -208 -131 -361 -121
-85 6 -93 5 -110 -15 -19 -21 -89 -57 -111 -58 -7 0 -5 17 8 50 26 69 24 81
-21 112 -126 87 -175 269 -109 405 46 95 161 184 276 213 64 16 221 5 283 -19z"/>
<path d="M270 545 c-26 -32 13 -81 48 -59 22 14 27 41 12 59 -16 19 -44 19
-60 0z"/>
<path d="M470 545 c-15 -18 -10 -45 13 -59 34 -22 73 27 47 59 -16 19 -44 19
-60 0z"/>
<path d="M670 545 c-26 -32 13 -81 48 -59 22 14 27 41 12 59 -16 19 -44 19
-60 0z"/>
</g>
</svg>
