<?xml version="1.0" standalone="no"?>
<!DOCTYPE svg PUBLIC "-//W3C//DTD SVG 20010904//EN"
 "http://www.w3.org/TR/2001/REC-SVG-20010904/DTD/svg10.dtd">
<svg version="1.0" xmlns="http://www.w3.org/2000/svg"
 width="96.000000pt" height="96.000000pt" viewBox="0 0 96.000000 96.000000"
 preserveAspectRatio="xMidYMid meet">

<g transform="translate(0.000000,96.000000) scale(0.100000,-0.100000)"
fill="#fff" stroke="none">
<path d="M680 842 l-43 -38 81 -82 82 -81 40 42 c22 23 40 49 40 57 0 20 -121
140 -141 140 -9 0 -36 -17 -59 -38z"/>
<path d="M387 552 l-187 -187 30 -12 c19 -7 35 -23 42 -41 7 -17 23 -33 40
-40 18 -6 34 -23 41 -41 l11 -30 187 192 188 192 -77 78 c-42 42 -79 77 -82
77 -3 0 -90 -84 -193 -188z"/>
<path d="M132 198 c-6 -40 -10 -74 -8 -75 3 -3 140 19 145 24 5 4 -110 123
-119 123 -4 0 -11 -33 -18 -72z"/>
</g>
</svg>
