<?xml version="1.0" standalone="no"?>
<!DOCTYPE svg PUBLIC "-//W3C//DTD SVG 20010904//EN"
 "http://www.w3.org/TR/2001/REC-SVG-20010904/DTD/svg10.dtd">
<svg version="1.0" xmlns="http://www.w3.org/2000/svg"
 width="96.000000pt" height="96.000000pt" viewBox="0 0 96.000000 96.000000"
 preserveAspectRatio="xMidYMid meet">

<g transform="translate(0.000000,96.000000) scale(0.100000,-0.100000)"
fill="#000000" stroke="none">
<path d="M395 800 l-80 -80 63 0 62 0 0 -240 0 -240 40 0 40 0 0 240 0 240 62
0 63 0 -80 80 c-44 44 -82 80 -85 80 -3 0 -41 -36 -85 -80z"/>
<path d="M185 655 l-25 -24 0 -251 0 -251 25 -24 24 -25 271 0 271 0 24 25 25
24 0 251 0 251 -25 24 c-16 17 -35 25 -60 25 -34 0 -35 -1 -35 -40 0 -33 3
-40 20 -40 19 0 20 -7 20 -220 l0 -220 -240 0 -240 0 0 220 c0 213 1 220 20
220 17 0 20 7 20 40 0 39 -1 40 -35 40 -25 0 -44 -8 -60 -25z"/>
</g>
</svg>
