<?xml version="1.0" standalone="no"?>
<!DOCTYPE svg PUBLIC "-//W3C//DTD SVG 20010904//EN"
 "http://www.w3.org/TR/2001/REC-SVG-20010904/DTD/svg10.dtd">
<svg version="1.0" xmlns="http://www.w3.org/2000/svg"
 width="96.000000pt" height="96.000000pt" viewBox="0 0 96.000000 96.000000"
 preserveAspectRatio="xMidYMid meet">

<g transform="translate(0.000000,96.000000) scale(0.100000,-0.100000)"
fill="#fff" stroke="none">
<path d="M105 815 l-25 -24 0 -311 0 -311 25 -24 24 -25 351 0 351 0 24 25 25
24 0 311 0 311 -25 24 -24 25 -351 0 -351 0 -24 -25z m695 -335 l0 -280 -320
0 -320 0 0 280 0 280 320 0 320 0 0 -280z"/>
<path d="M360 480 l0 -162 23 14 c12 8 73 43 135 78 61 35 112 67 112 70 0 3
-51 35 -112 70 -62 35 -123 70 -135 78 l-23 14 0 -162z"/>
</g>
</svg>
